<svg xmlns="http://www.w3.org/2000/svg" width="40.667" height="40.667" viewBox="0 0 40.667 40.667">
  <g id="accounting" transform="translate(-3 -3)">
    <path id="Path_6077" data-name="Path 6077" d="M33.25,30.331a2.753,2.753,0,0,0,3.61-.782l4.823,1.93a3.547,3.547,0,0,0-.062.621,3.506,3.506,0,1,0,4.207-3.435V22.95c-.231.021-.464.035-.7.035s-.47-.015-.7-.035v5.716a3.508,3.508,0,0,0-2.223,1.51l-4.824-1.93a2.8,2.8,0,1,0-5.573-.353,2.771,2.771,0,0,0,.429,1.473L29,32.754v2.031Z" transform="translate(-7.77 -5.962)" fill="#fff"/>
    <path id="Path_6078" data-name="Path 6078" d="M49.31,15.621A6.31,6.31,0,1,0,43,9.31,6.318,6.318,0,0,0,49.31,15.621Zm-2.8-4.908h1.4v.7h2.1a.7.7,0,1,0,0-1.4h-1.4a2.1,2.1,0,0,1,0-4.207V4.4h1.4V5.8h2.1v2.1h-1.4v-.7h-2.1a.7.7,0,0,0,0,1.4h1.4a2.1,2.1,0,1,1,0,4.207v1.4h-1.4v-1.4h-2.1Z" transform="translate(-11.954)" fill="#fff"/>
    <path id="Path_6079" data-name="Path 6079" d="M23,35h1.4v1.4H23Z" transform="translate(-5.977 -9.563)" fill="#fff"/>
    <path id="Path_6080" data-name="Path 6080" d="M23,27h1.4v1.4H23Z" transform="translate(-5.977 -7.172)" fill="#fff"/>
    <path id="Path_6081" data-name="Path 6081" d="M7,13H19.621v5.609H7Z" transform="translate(-1.195 -2.988)" fill="#fff"/>
    <path id="Path_6082" data-name="Path 6082" d="M15,35h1.4v1.4H15Z" transform="translate(-3.586 -9.563)" fill="#fff"/>
    <path id="Path_6083" data-name="Path 6083" d="M25.786,47a7.633,7.633,0,0,1,.815,2.8H42.856l-.935-1.4.934-1.4Z" transform="translate(-6.81 -13.149)" fill="#fff"/>
    <path id="Path_6084" data-name="Path 6084" d="M7,27H8.4v1.4H7Z" transform="translate(-1.195 -7.172)" fill="#fff"/>
    <path id="Path_6085" data-name="Path 6085" d="M15,27h1.4v1.4H15Z" transform="translate(-3.586 -7.172)" fill="#fff"/>
    <path id="Path_6086" data-name="Path 6086" d="M13.31,43a6.31,6.31,0,1,0,6.31,6.31A6.318,6.318,0,0,0,13.31,43Zm2.8,4.908h-1.4v-.7h-2.1a.7.7,0,1,0,0,1.4h1.4a2.1,2.1,0,0,1,0,4.207v1.4h-1.4v-1.4h-2.1v-2.1h1.4v.7h2.1a.7.7,0,0,0,0-1.4h-1.4a2.1,2.1,0,1,1,0-4.207V44.4h1.4v1.4h2.1Z" transform="translate(-1.195 -11.954)" fill="#fff"/>
    <path id="Path_6087" data-name="Path 6087" d="M24.418,43.455h3.17V39.829L24.275,43.3C24.321,43.352,24.373,43.4,24.418,43.455Z" transform="translate(-6.358 -11.006)" fill="#fff"/>
    <path id="Path_6088" data-name="Path 6088" d="M4.4,34.241v-1.4a1.4,1.4,0,0,1,1.4-1.4h1.4a1.4,1.4,0,0,1,1.3.9,7.682,7.682,0,0,1,8.4.779l4.323-4.529V11.1a2.106,2.106,0,0,0-2.1-2.1H5.1A2.106,2.106,0,0,0,3,11.1V34.943a2.1,2.1,0,0,0,1.712,2.063,7.668,7.668,0,0,1,.589-1.46A1.4,1.4,0,0,1,4.4,34.241Zm9.816-5.609a1.4,1.4,0,0,1-1.4,1.4h-1.4a1.4,1.4,0,0,1-1.4-1.4v-1.4a1.4,1.4,0,0,1,1.4-1.4h1.4a1.4,1.4,0,0,1,1.4,1.4Zm0-5.609a1.4,1.4,0,0,1-1.4,1.4h-1.4a1.4,1.4,0,0,1-1.4-1.4v-1.4a1.4,1.4,0,0,1,1.4-1.4h1.4a1.4,1.4,0,0,1,1.4,1.4Zm5.609,5.609a1.4,1.4,0,0,1-1.4,1.4h-1.4a1.4,1.4,0,0,1-1.4-1.4v-1.4a1.4,1.4,0,0,1,1.4-1.4h1.4a1.4,1.4,0,0,1,1.4,1.4Zm0-5.609a1.4,1.4,0,0,1-1.4,1.4h-1.4a1.4,1.4,0,0,1-1.4-1.4v-1.4a1.4,1.4,0,0,1,1.4-1.4h1.4a1.4,1.4,0,0,1,1.4,1.4ZM4.4,11.8a1.4,1.4,0,0,1,1.4-1.4H18.425a1.4,1.4,0,0,1,1.4,1.4v5.609a1.4,1.4,0,0,1-1.4,1.4H5.8a1.4,1.4,0,0,1-1.4-1.4Zm0,9.816a1.4,1.4,0,0,1,1.4-1.4h1.4a1.4,1.4,0,0,1,1.4,1.4v1.4a1.4,1.4,0,0,1-1.4,1.4H5.8a1.4,1.4,0,0,1-1.4-1.4Zm0,5.609a1.4,1.4,0,0,1,1.4-1.4h1.4a1.4,1.4,0,0,1,1.4,1.4v1.4a1.4,1.4,0,0,1-1.4,1.4H5.8a1.4,1.4,0,0,1-1.4-1.4Z" transform="translate(0 -1.793)" fill="#fff"/>
    <path id="Path_6089" data-name="Path 6089" d="M7,44.4h.365A7.791,7.791,0,0,1,8.4,43.365V43H7Z" transform="translate(-1.195 -11.954)" fill="#fff"/>
    <path id="Path_6090" data-name="Path 6090" d="M57.832,50.2,52,47.289l-.8,1.2,1.4,2.1-1.4,2.1.8,1.2,5.83-2.915a.433.433,0,0,0,0-.775Z" transform="translate(-14.405 -13.236)" fill="#fff"/>
    <path id="Path_6091" data-name="Path 6091" d="M42.856,52.995H26.6a7.643,7.643,0,0,1-.816,2.808h17.07l-.935-1.4Z" transform="translate(-6.81 -14.941)" fill="#fff"/>
    <path id="Path_6092" data-name="Path 6092" d="M7,35H8.4v1.4H7Z" transform="translate(-1.195 -9.563)" fill="#fff"/>
  </g>
</svg>
