<svg xmlns="http://www.w3.org/2000/svg" width="523.681" height="543.033" viewBox="0 0 523.681 543.033">
  <g id="Group_1369" data-name="Group 1369" transform="matrix(-0.259, -0.966, 0.966, -0.259, -3227.336, 4720.168)" opacity="0.3">
    <path id="Path_1096" data-name="Path 1096" d="M4062.661,4543.951a9.975,9.975,0,1,1-9.979-9.978,9.98,9.98,0,0,1,9.979,9.978" transform="translate(-422.866 -125.606)" fill="#ff2b80"/>
    <path id="Path_1097" data-name="Path 1097" d="M4053.661,4952.768a14.643,14.643,0,1,1-14.642-14.638,14.643,14.643,0,0,1,14.642,14.638" transform="translate(-414.413 -311.939)" fill="#ff2b80"/>
    <path id="Path_1098" data-name="Path 1098" d="M3379.314,5134.7a7.554,7.554,0,1,1-7.555-7.552,7.557,7.557,0,0,1,7.555,7.552" transform="translate(-110.046 -399.082)" fill="#ff2b80"/>
    <path id="Path_1099" data-name="Path 1099" d="M3168.225,4851.958a10.1,10.1,0,1,1-10.1-10.1,10.1,10.1,0,0,1,10.1,10.1" transform="translate(-10.377 -267.554)" fill="#ff2b80"/>
    <path id="Path_1100" data-name="Path 1100" d="M3186.189,4519.155a10.477,10.477,0,1,1-10.478-10.483,10.48,10.48,0,0,1,10.478,10.483" transform="translate(-18.312 -113.941)" fill="#ff2b80"/>
    <path id="Path_1101" data-name="Path 1101" d="M4001.37,4446.912a9.572,9.572,0,1,1-9.571-9.571,9.565,9.565,0,0,1,9.571,9.571" transform="translate(-394.98 -81.054)" fill="#ff2b80"/>
    <path id="Path_1102" data-name="Path 1102" d="M3905.138,4357.032a9.57,9.57,0,1,1-9.573-9.571,9.568,9.568,0,0,1,9.573,9.571" transform="translate(-350.615 -39.616)" fill="#ff2b80"/>
    <path id="Path_1103" data-name="Path 1103" d="M3709.261,4275.892a8.027,8.027,0,1,1-8.027-8.025,8.029,8.029,0,0,1,8.027,8.025" transform="translate(-261.73 -2.918)" fill="#ff2b80"/>
    <path id="Path_1104" data-name="Path 1104" d="M3315.439,4367.1a5.676,5.676,0,1,1-5.676-5.672,5.677,5.677,0,0,1,5.676,5.672" transform="translate(-82.329 -46.053)" fill="#ff2b80"/>
    <path id="Path_1105" data-name="Path 1105" d="M3155.488,4732.285A14.985,14.985,0,1,1,3140.5,4717.3a14.986,14.986,0,0,1,14.985,14.982" transform="translate(-0.001 -210.129)" fill="#ff2b80"/>
    <path id="Path_1106" data-name="Path 1106" d="M3258.465,4898.52a8.556,8.556,0,1,1-12.1,0,8.556,8.556,0,0,1,12.1,0" transform="translate(-54.561 -292.521)" fill="#ff2b80"/>
    <path id="Path_1107" data-name="Path 1107" d="M3814.113,5149.18a8.027,8.027,0,1,1-8.028-8.025,8.029,8.029,0,0,1,8.028,8.025" transform="translate(-310.071 -405.543)" fill="#ff2b80"/>
    <path id="Path_1108" data-name="Path 1108" d="M4107.775,4788.3a6.551,6.551,0,1,1-6.551-6.545,6.552,6.552,0,0,1,6.551,6.545" transform="translate(-446.823 -239.844)" fill="#ff2b80"/>
    <path id="Path_1109" data-name="Path 1109" d="M4090.318,4878.28a4.631,4.631,0,1,1-4.634-4.627,4.634,4.634,0,0,1,4.634,4.627" transform="translate(-440.545 -282.212)" fill="#ff2b80"/>
    <path id="Path_1110" data-name="Path 1110" d="M3518.412,4287.37a4.631,4.631,0,1,1-4.631-4.634,4.632,4.632,0,0,1,4.631,4.634" transform="translate(-176.872 -9.775)" fill="#ff2b80"/>
    <path id="Path_1111" data-name="Path 1111" d="M3248.471,4428.888a9.573,9.573,0,1,1,9.571-9.572,9.573,9.573,0,0,1-9.571,9.572" transform="translate(-52.275 -68.33)" fill="#ff2b80"/>
    <path id="Path_1112" data-name="Path 1112" d="M3980.308,4603.311a11.958,11.958,0,1,1-16.912,0,11.971,11.971,0,0,1,16.912,0" transform="translate(-384.683 -155.958)" fill="#ff2b80"/>
    <path id="Path_1113" data-name="Path 1113" d="M3388.614,4415.935a6.555,6.555,0,1,1-9.271,0,6.554,6.554,0,0,1,9.271,0" transform="translate(-116.139 -70.299)" fill="#ff2b80"/>
    <path id="Path_1114" data-name="Path 1114" d="M3230.293,4771.021a4.636,4.636,0,1,1-6.556,0,4.638,4.638,0,0,1,6.556,0" transform="translate(-44.658 -234.27)" fill="#ff2b80"/>
    <path id="Path_1115" data-name="Path 1115" d="M3573.183,5113.429a11.74,11.74,0,1,1-16.6,0,11.739,11.739,0,0,1,16.6,0" transform="translate(-197.153 -391.174)" fill="#ff2b80"/>
    <path id="Path_1116" data-name="Path 1116" d="M3953.478,4859.7a6.554,6.554,0,1,1-9.269,0,6.55,6.55,0,0,1,9.269,0" transform="translate(-376.568 -274.893)" fill="#ff2b80"/>
    <path id="Path_1117" data-name="Path 1117" d="M3902.484,4956.759a6.554,6.554,0,1,1-9.27,0,6.555,6.555,0,0,1,9.27,0" transform="translate(-353.056 -319.642)" fill="#ff2b80"/>
    <path id="Path_1118" data-name="Path 1118" d="M3795.959,4379.917a5.575,5.575,0,1,1-7.884,0,5.576,5.576,0,0,1,7.884,0" transform="translate(-303.563 -58.725)" fill="#ff2b80"/>
    <path id="Path_1119" data-name="Path 1119" d="M3955.72,4547.857a2.674,2.674,0,1,1-3.785,0,2.671,2.671,0,0,1,3.785,0" transform="translate(-380.654 -131.645)" fill="#ff2b80"/>
    <path id="Path_1121" data-name="Path 1121" d="M3837.887,4888.656a4.77,4.77,0,1,1-4.771,4.767,4.769,4.769,0,0,1,4.771-4.767" transform="translate(-326.234 -289.129)" fill="#ff2b80"/>
    <path id="Path_1122" data-name="Path 1122" d="M3468,4443.922a6.042,6.042,0,1,1-6.044,6.042,6.044,6.044,0,0,1,6.044-6.042" transform="translate(-155.113 -84.088)" fill="#ff2b80"/>
    <path id="Path_1123" data-name="Path 1123" d="M3295.545,4679.779a5.068,5.068,0,1,1-5.07,5.065,5.069,5.069,0,0,1,5.07-5.065" transform="translate(-76.053 -192.828)" fill="#ff2b80"/>
    <path id="Path_1124" data-name="Path 1124" d="M3526.517,5021.64a5.069,5.069,0,1,1-5.07,5.065,5.069,5.069,0,0,1,5.07-5.065" transform="translate(-182.541 -350.44)" fill="#ff2b80"/>
    <path id="Path_1125" data-name="Path 1125" d="M3779.255,4956.8a9.077,9.077,0,1,1-9.079,9.079,9.078,9.078,0,0,1,9.079-9.079" transform="translate(-297.216 -320.549)" fill="#ff2b80"/>
    <path id="Path_1126" data-name="Path 1126" d="M3676.693,4444.4a2.069,2.069,0,1,1-2.067,2.069,2.066,2.066,0,0,1,2.067-2.069" transform="translate(-253.163 -84.307)" fill="#ff2b80"/>
    <path id="Path_1127" data-name="Path 1127" d="M3302.789,4803.964a2.927,2.927,0,1,1-2.924,2.929,2.924,2.924,0,0,1,2.924-2.929" transform="translate(-80.382 -250.083)" fill="#ff2b80"/>
    <path id="Path_1128" data-name="Path 1128" d="M3398.372,4959.068a6.044,6.044,0,1,1-6.044-6.048,6.043,6.043,0,0,1,6.044,6.048" transform="translate(-120.225 -318.804)" fill="#ff2b80"/>
    <path id="Path_1129" data-name="Path 1129" d="M3401.377,4642.927a4.711,4.711,0,1,1-4.711-4.714,4.708,4.708,0,0,1,4.711,4.714" transform="translate(-98.932 -181.752)" fill="#ff2b80"/>
    <path id="Path_1130" data-name="Path 1130" d="M3717.514,4565.605a4.3,4.3,0,1,1-4.3-4.306,4.3,4.3,0,0,1,4.3,4.306" transform="translate(-268.968 -138.204)" fill="#ff2b80"/>
    <path id="Path_1131" data-name="Path 1131" d="M3629.438,4529.12a3.61,3.61,0,1,1-3.611-3.608,3.608,3.608,0,0,1,3.611,3.608" transform="translate(-229.001 -121.704)" fill="#ff2b80"/>
    <path id="Path_1132" data-name="Path 1132" d="M3427.3,4873.54a6.464,6.464,0,1,1-6.463-6.462,6.463,6.463,0,0,1,6.463,6.462" transform="translate(-133.175 -279.181)" fill="#ff2b80"/>
    <path id="Path_1133" data-name="Path 1133" d="M3676.585,4921.81a3.61,3.61,0,1,1-3.608-3.61,3.612,3.612,0,0,1,3.608,3.61" transform="translate(-250.738 -302.75)" fill="#ff2b80"/>
    <path id="Path_1134" data-name="Path 1134" d="M3800.78,4799.99a2.082,2.082,0,1,1-2.082-2.081,2.084,2.084,0,0,1,2.082,2.081" transform="translate(-309.406 -247.291)" fill="#ff2b80"/>
    <path id="Path_1135" data-name="Path 1135" d="M3543.62,4534.282a2.082,2.082,0,1,1-2.083-2.087,2.083,2.083,0,0,1,2.083,2.087" transform="translate(-190.843 -124.785)" fill="#ff2b80"/>
    <path id="Path_1136" data-name="Path 1136" d="M3717.194,4892.559a2.082,2.082,0,1,1-2.082-2.081,2.084,2.084,0,0,1,2.082,2.081" transform="translate(-270.869 -289.969)" fill="#ff2b80"/>
    <path id="Path_1137" data-name="Path 1137" d="M3798.865,4296.9a5.571,5.571,0,1,1-5.572-5.574,5.571,5.571,0,0,1,5.572,5.574" transform="translate(-305.306 -13.733)" fill="#ffc20d"/>
    <path id="Path_1138" data-name="Path 1138" d="M3208.033,4962.437a8.027,8.027,0,1,1-8.028-8.031,8.025,8.025,0,0,1,8.028,8.031" transform="translate(-30.641 -319.443)" fill="#ffc20d"/>
    <path id="Path_1139" data-name="Path 1139" d="M3685.919,5189.067a8.028,8.028,0,1,1-8.027-8.026,8.024,8.024,0,0,1,8.027,8.026" transform="translate(-250.968 -423.932)" fill="#ffc20d"/>
    <path id="Path_1140" data-name="Path 1140" d="M4108.166,4682.05a9.262,9.262,0,1,1-9.262-9.262,9.265,9.265,0,0,1,9.262,9.262" transform="translate(-444.503 -189.605)" fill="#ffc20d"/>
    <path id="Path_1141" data-name="Path 1141" d="M3251.477,4590.5a10.2,10.2,0,1,1-14.423,0,10.2,10.2,0,0,1,14.423,0" transform="translate(-50.047 -150.291)" fill="#ffc20d"/>
    <path id="Path_1142" data-name="Path 1142" d="M3408.592,4269.675a15.793,15.793,0,1,1-22.335,0,15.793,15.793,0,0,1,22.335,0" transform="translate(-118.081 -1.621)" fill="#ffc20d"/>
    <path id="Path_1143" data-name="Path 1143" d="M3506.366,4544.406a5.614,5.614,0,1,1-5.613-5.617,5.613,5.613,0,0,1,5.613,5.617" transform="translate(-170.411 -127.825)" fill="#ffc20d"/>
    <path id="Path_1144" data-name="Path 1144" d="M3504.009,5189.067a8.028,8.028,0,1,1-8.028-8.026,8.026,8.026,0,0,1,8.028,8.026" transform="translate(-167.099 -423.932)" fill="#ffc20d"/>
    <path id="Path_1145" data-name="Path 1145" d="M3456.427,5095.7a3.355,3.355,0,1,1-4.744,0,3.353,3.353,0,0,1,4.744,0" transform="translate(-149.925 -384.132)" fill="#ffc20d"/>
    <path id="Path_1147" data-name="Path 1147" d="M3259.748,5041.844a14.375,14.375,0,1,1-14.375-14.375,14.373,14.373,0,0,1,14.375,14.375" transform="translate(-48.631 -353.128)" fill="#03bbcc"/>
    <path id="Path_1148" data-name="Path 1148" d="M3549.053,4348.589a7.817,7.817,0,1,1-11.054,0,7.822,7.822,0,0,1,11.054,0" transform="translate(-189.116 -39.081)" fill="#03bbcc"/>
    <path id="Path_1149" data-name="Path 1149" d="M3797.448,5061.8a6.555,6.555,0,1,1-9.27,0,6.552,6.552,0,0,1,9.27,0" transform="translate(-304.63 -368.073)" fill="#03bbcc"/>
    <path id="Path_1150" data-name="Path 1150" d="M3904.443,5084.132a4.631,4.631,0,1,1-4.631-4.63,4.631,4.631,0,0,1,4.631,4.63" transform="translate(-354.849 -377.117)" fill="#03bbcc"/>
    <path id="Path_1151" data-name="Path 1151" d="M3657.239,4352.382a3.036,3.036,0,1,1-4.293,0,3.037,3.037,0,0,1,4.293,0" transform="translate(-242.757 -41.475)" fill="#03bbcc"/>
    <path id="Path_1152" data-name="Path 1152" d="M3364.99,5022.138a6.739,6.739,0,1,1-9.531,0,6.74,6.74,0,0,1,9.531,0" transform="translate(-105.104 -349.761)" fill="#03bbcc"/>
    <path id="Path_1153" data-name="Path 1153" d="M3291.359,4515.554a1.89,1.89,0,1,1-2.674,0,1.89,1.89,0,0,1,2.674,0" transform="translate(-74.973 -116.858)" fill="#03bbcc"/>
    <path id="Path_1154" data-name="Path 1154" d="M3537.163,4939.731a3.609,3.609,0,1,1-3.61-3.61,3.61,3.61,0,0,1,3.61,3.61" transform="translate(-186.458 -311.013)" fill="#03bbcc"/>
    <path id="Path_1155" data-name="Path 1155" d="M3885.221,4464.492a5.347,5.347,0,1,1-7.563,0,5.346,5.346,0,0,1,7.563,0" transform="translate(-346.047 -92.849)" fill="#03bbcc"/>
    <path id="Path_1156" data-name="Path 1156" d="M3981.534,4746.691a3.782,3.782,0,1,1-5.349,0,3.782,3.782,0,0,1,5.349,0" transform="translate(-391.684 -223.167)" fill="#03bbcc"/>
    <path id="Path_1157" data-name="Path 1157" d="M3659.353,5019.2a6.378,6.378,0,1,1-6.379,6.38,6.379,6.379,0,0,1,6.379-6.38" transform="translate(-243.18 -349.317)" fill="#03bbcc"/>
    <path id="Path_1158" data-name="Path 1158" d="M3852.819,4613.554a10.835,10.835,0,1,1-10.834,10.834,10.837,10.837,0,0,1,10.834-10.834" transform="translate(-355.774 -156.708)" fill="#c29b1b"/>
    <path id="Path_1159" data-name="Path 1159" d="M3619.155,4429.7a4.135,4.135,0,1,1-4.135,4.137,4.136,4.136,0,0,1,4.135-4.137" transform="translate(-225.682 -77.53)" fill="#03bbcc"/>
    <path id="Path_1160" data-name="Path 1160" d="M3760.807,4606.014a4.3,4.3,0,1,1-4.3-4.3,4.3,4.3,0,0,1,4.3,4.3" transform="translate(-288.927 -156.835)" fill="#03bbcc"/>
    <path id="Path_1161" data-name="Path 1161" d="M3380.447,4734.333a6.738,6.738,0,1,1-6.739-6.738,6.739,6.739,0,0,1,6.739,6.738" transform="translate(-107.711 -270.846)" fill="#03bbcc"/>
    <path id="Path_1162" data-name="Path 1162" d="M3373.41,4547.687a4.3,4.3,0,1,1,4.3-4.3,4.3,4.3,0,0,1-4.3,4.3" transform="translate(-112.305 -127.96)" fill="#03bbcc"/>
    <path id="Path_1163" data-name="Path 1163" d="M3142.32,4647.242a4.3,4.3,0,1,1,4.3-4.3,4.3,4.3,0,0,1-4.3,4.3" transform="translate(-5.763 -173.858)" fill="#03bbcc"/>
  </g>
</svg>
