<svg xmlns="http://www.w3.org/2000/svg" width="40.777" height="40.475" viewBox="0 0 40.777 40.475">
  <g id="company_1_" data-name="company (1)" transform="translate(0 -0.178)">
    <path id="Path_6060" data-name="Path 6060" d="M22.139,3.053,3.466.215A3.011,3.011,0,0,0,1.053.878,3.038,3.038,0,0,0,0,3.155v35.8a1.7,1.7,0,0,0,1.7,1.7H7.221v-8.92a2.966,2.966,0,0,1,2.973-2.973h4.248a2.966,2.966,0,0,1,2.973,2.973v8.92h7.221V5.992a2.975,2.975,0,0,0-2.5-2.939ZM9.345,24.937H6.8a1.274,1.274,0,1,1,0-2.549H9.345a1.274,1.274,0,1,1,0,2.549Zm0-5.1H6.8a1.274,1.274,0,1,1,0-2.549H9.345a1.274,1.274,0,1,1,0,2.549Zm0-5.1H6.8a1.274,1.274,0,1,1,0-2.549H9.345a1.274,1.274,0,0,1,0,2.549Zm0-5.1H6.8A1.274,1.274,0,1,1,6.8,7.1H9.345a1.274,1.274,0,0,1,0,2.549Zm8.5,15.291H15.291a1.274,1.274,0,1,1,0-2.549H17.84a1.274,1.274,0,0,1,0,2.549Zm0-5.1H15.291a1.274,1.274,0,1,1,0-2.549H17.84a1.274,1.274,0,0,1,0,2.549Zm0-5.1H15.291a1.274,1.274,0,0,1,0-2.549H17.84a1.274,1.274,0,0,1,0,2.549Zm0-5.1H15.291a1.274,1.274,0,0,1,0-2.549H17.84a1.274,1.274,0,0,1,0,2.549Z" transform="translate(0 0)" fill="#fff"/>
    <path id="Path_6061" data-name="Path 6061" d="M27.6,11.884,15.5,9.351V34.24H26.969a2.977,2.977,0,0,0,2.973-2.973V14.79A2.959,2.959,0,0,0,27.6,11.884ZM23.571,29.143H21.022a1.274,1.274,0,0,1,0-2.549h2.549a1.274,1.274,0,0,1,0,2.549Zm0-5.1H21.022a1.274,1.274,0,1,1,0-2.549h2.549a1.274,1.274,0,1,1,0,2.549Zm0-5.1H21.022a1.274,1.274,0,1,1,0-2.549h2.549a1.274,1.274,0,1,1,0,2.549Z" transform="translate(10.835 6.412)" fill="#fff"/>
  </g>
</svg>
