<svg xmlns="http://www.w3.org/2000/svg" width="44.697" height="37.916" viewBox="0 0 44.697 37.916">
  <g id="people" transform="translate(0 -38.84)">
    <g id="Group_1374" data-name="Group 1374" transform="translate(34.788 59.31)">
      <g id="Group_1373" data-name="Group 1373">
        <path id="Path_6062" data-name="Path 6062" d="M401.951,273.32h-3.457a8.991,8.991,0,0,1,.545,3.091v13.064a3.853,3.853,0,0,1-.222,1.29h5.715a3.876,3.876,0,0,0,3.871-3.871v-7.122A6.459,6.459,0,0,0,401.951,273.32Z" transform="translate(-398.494 -273.32)" fill="#fff"/>
      </g>
    </g>
    <g id="Group_1376" data-name="Group 1376" transform="translate(0 59.31)">
      <g id="Group_1375" data-name="Group 1375">
        <path id="Path_6063" data-name="Path 6063" d="M9.364,276.412a8.991,8.991,0,0,1,.545-3.091H6.452A6.46,6.46,0,0,0,0,279.773V286.9a3.876,3.876,0,0,0,3.871,3.871H9.586a3.854,3.854,0,0,1-.222-1.291Z" transform="translate(0 -273.321)" fill="#fff"/>
      </g>
    </g>
    <g id="Group_1378" data-name="Group 1378" transform="translate(11.945 55.949)">
      <g id="Group_1377" data-name="Group 1377">
        <path id="Path_6064" data-name="Path 6064" d="M151.184,234.815h-7.9a6.46,6.46,0,0,0-6.452,6.452v13.064a1.291,1.291,0,0,0,1.29,1.29h18.226a1.29,1.29,0,0,0,1.29-1.29V241.267A6.46,6.46,0,0,0,151.184,234.815Z" transform="translate(-136.829 -234.815)" fill="#fff"/>
      </g>
    </g>
    <g id="Group_1380" data-name="Group 1380" transform="translate(14.589 38.84)">
      <g id="Group_1379" data-name="Group 1379" transform="translate(0 0)">
        <path id="Path_6065" data-name="Path 6065" d="M174.874,38.84a7.758,7.758,0,1,0,7.76,7.76A7.769,7.769,0,0,0,174.874,38.84Z" transform="translate(-167.114 -38.84)" fill="#fff"/>
      </g>
    </g>
    <g id="Group_1382" data-name="Group 1382" transform="translate(2.92 46.073)">
      <g id="Group_1381" data-name="Group 1381">
        <path id="Path_6066" data-name="Path 6066" d="M39.246,121.689a5.8,5.8,0,1,0,5.8,5.8A5.81,5.81,0,0,0,39.246,121.689Z" transform="translate(-33.443 -121.689)" fill="#fff"/>
      </g>
    </g>
    <g id="Group_1384" data-name="Group 1384" transform="translate(30.171 46.073)">
      <g id="Group_1383" data-name="Group 1383">
        <path id="Path_6067" data-name="Path 6067" d="M351.41,121.689a5.8,5.8,0,1,0,5.8,5.8A5.81,5.81,0,0,0,351.41,121.689Z" transform="translate(-345.607 -121.689)" fill="#fff"/>
      </g>
    </g>
  </g>
</svg>
