<svg id="idea" xmlns="http://www.w3.org/2000/svg" width="42.667" height="42.667" viewBox="0 0 42.667 42.667">
  <path id="Path_6093" data-name="Path 6093" d="M12.583,6.146A1.334,1.334,0,0,1,11.25,4.812V1.333a1.333,1.333,0,1,1,2.667,0V4.812A1.334,1.334,0,0,1,12.583,6.146Z" transform="translate(8.75)" fill="#fff"/>
  <path id="Path_6094" data-name="Path 6094" d="M19.154,8.423a1.334,1.334,0,0,1-.942-2.277l2.46-2.46a1.334,1.334,0,1,1,1.886,1.886L20.1,8.032A1.337,1.337,0,0,1,19.154,8.423Z" transform="translate(13.861 2.562)" fill="#fff"/>
  <path id="Path_6095" data-name="Path 6095" d="M25.355,13.917H21.876a1.333,1.333,0,1,1,0-2.667h3.479a1.333,1.333,0,1,1,0,2.667Z" transform="translate(15.978 8.75)" fill="#fff"/>
  <path id="Path_6096" data-name="Path 6096" d="M21.615,22.949a1.323,1.323,0,0,1-.942-.391l-2.46-2.46A1.334,1.334,0,0,1,20.1,18.211l2.46,2.46a1.334,1.334,0,0,1-.944,2.277Z" transform="translate(13.861 13.86)" fill="#fff"/>
  <path id="Path_6097" data-name="Path 6097" d="M4.628,22.949a1.334,1.334,0,0,1-.942-2.277l2.46-2.46A1.334,1.334,0,0,1,8.033,20.1l-2.46,2.46A1.33,1.33,0,0,1,4.628,22.949Z" transform="translate(2.563 13.86)" fill="#fff"/>
  <path id="Path_6098" data-name="Path 6098" d="M4.812,13.917H1.333a1.333,1.333,0,0,1,0-2.667H4.812a1.333,1.333,0,0,1,0,2.667Z" transform="translate(0 8.75)" fill="#fff"/>
  <path id="Path_6099" data-name="Path 6099" d="M7.089,8.423a1.323,1.323,0,0,1-.942-.391l-2.46-2.46A1.334,1.334,0,1,1,5.572,3.685l2.46,2.46a1.334,1.334,0,0,1-.944,2.277Z" transform="translate(2.563 2.562)" fill="#fff"/>
  <path id="Path_6100" data-name="Path 6100" d="M19.667,21v2.222a3.126,3.126,0,0,1-3.111,3.111H12.111C10.618,26.333,9,25.2,9,22.707V21Z" transform="translate(7 16.333)" fill="#fff"/>
  <path id="Path_6101" data-name="Path 6101" d="M25.285,7.772A12.446,12.446,0,1,0,9.961,27.381a5.368,5.368,0,0,1,2.027,3.4v.018a.3.3,0,0,1,.124-.018H22.779a.16.16,0,0,1,.089.018v-.018a5.93,5.93,0,0,1,2.276-3.556,12.451,12.451,0,0,0,.142-19.449Zm-1.173,10.56A1.343,1.343,0,0,1,22.779,17,4.886,4.886,0,0,0,17.89,12.11a1.333,1.333,0,1,1,0-2.667A7.572,7.572,0,0,1,25.445,17,1.343,1.343,0,0,1,24.112,18.332Z" transform="translate(3.888 3.89)" fill="#fff"/>
  <path id="Path_6102" data-name="Path 6102" d="M8.93,19.5h.124a.3.3,0,0,0-.124.018Z" transform="translate(6.946 15.167)" fill="#fff"/>
  <path id="Path_6103" data-name="Path 6103" d="M15.089,19.5v.018A.16.16,0,0,0,15,19.5Z" transform="translate(11.667 15.167)" fill="#fff"/>
</svg>
