<svg id="link" xmlns="http://www.w3.org/2000/svg" width="22.557" height="18.548" viewBox="0 0 22.557 18.548">
  <g id="Group_687" data-name="Group 687" transform="translate(8.64 0)">
    <g id="Group_686" data-name="Group 686">
      <path id="Path_5964" data-name="Path 5964" d="M195.536,43.66a4.227,4.227,0,0,0-2.992-1.239h0a4.2,4.2,0,0,0-2.989,1.238l-5.461,5.461a4.234,4.234,0,0,0-1.081,4.135.806.806,0,1,0,1.552-.438,2.622,2.622,0,0,1,.669-2.557l5.461-5.46a2.615,2.615,0,0,1,3.7,3.7l-5.461,5.461a2.606,2.606,0,0,1-1.308.709.806.806,0,0,0,.167,1.6.8.8,0,0,0,.168-.018,4.215,4.215,0,0,0,2.114-1.147l5.461-5.46A4.227,4.227,0,0,0,195.536,43.66Z" transform="translate(-182.855 -42.421)" fill="#00cddd"/>
    </g>
  </g>
  <g id="Group_689" data-name="Group 689" transform="translate(0 4.727)">
    <g id="Group_688" data-name="Group 688" transform="translate(0 0)">
      <path id="Path_5965" data-name="Path 5965" d="M13.735,145.462a.806.806,0,0,0-1.552.438,2.622,2.622,0,0,1-.669,2.557l-5.461,5.461a2.615,2.615,0,0,1-3.7-3.7l5.461-5.462a2.6,2.6,0,0,1,1.306-.709.806.806,0,1,0-.316-1.581l-.016,0a4.222,4.222,0,0,0-2.114,1.147l-5.461,5.461a4.228,4.228,0,0,0,5.979,5.98l5.461-5.462A4.234,4.234,0,0,0,13.735,145.462Z" transform="translate(0.001 -142.452)" fill="#00cddd"/>
    </g>
  </g>
</svg>
