<svg xmlns="http://www.w3.org/2000/svg" width="42.389" height="30" viewBox="0 0 42.389 30">
  <g id="Logo" transform="translate(-34.9 -23.6)">
    <g id="Group_1242" data-name="Group 1242" transform="translate(38.101 27.805)">
      <path id="Path_6030" data-name="Path 6030" d="M58.8,57.9h5.6v1.406H62.443v5.129h-1.7V59.306H58.8Z" transform="translate(-58.8 -57.512)" fill="#464646"/>
      <path id="Path_6031" data-name="Path 6031" d="M102.492,68.921a2.344,2.344,0,0,1,.964.911,2.64,2.64,0,0,1,.348,1.353,2.605,2.605,0,0,1-.348,1.353,2.433,2.433,0,0,1-.964.911,3.415,3.415,0,0,1-2.893,0,2.344,2.344,0,0,1-.964-.911,2.9,2.9,0,0,1,0-2.705,2.433,2.433,0,0,1,.964-.911,3.415,3.415,0,0,1,2.893,0Zm-2.237,1.366a1.555,1.555,0,0,0,0,1.821,1.055,1.055,0,0,0,1.567,0,1.331,1.331,0,0,0,.295-.911,1.362,1.362,0,0,0-.308-.911,1.015,1.015,0,0,0-.79-.348A1,1,0,0,0,100.255,70.288Z" transform="translate(-93.01 -66.779)" fill="#464646"/>
      <path id="Path_6032" data-name="Path 6032" d="M148.018,55v6.911h-1.661v-.656a1.647,1.647,0,0,1-.643.536,1.966,1.966,0,0,1-.857.188,2.348,2.348,0,0,1-1.232-.321,2.233,2.233,0,0,1-.83-.924,2.934,2.934,0,0,1-.295-1.366,2.86,2.86,0,0,1,.295-1.339,2.123,2.123,0,0,1,.817-.9,2.253,2.253,0,0,1,1.205-.321,2.026,2.026,0,0,1,.871.188,1.813,1.813,0,0,1,.656.536V55Zm-1.955,5.33a1.555,1.555,0,0,0,0-1.821.988.988,0,0,0-.777-.348,1.015,1.015,0,0,0-.79.348,1.338,1.338,0,0,0-.308.911,1.362,1.362,0,0,0,.308.911,1.015,1.015,0,0,0,.79.348A.988.988,0,0,0,146.063,60.33Z" transform="translate(-131.29 -55)" fill="#464646"/>
      <path id="Path_6033" data-name="Path 6033" d="M194.972,68.982a1.691,1.691,0,0,1,.589,1.353v3.281h-1.634v-.563a2.085,2.085,0,0,1-2.772.214,1.474,1.474,0,0,1-.455-1.138A1.355,1.355,0,0,1,191.2,71a2.31,2.31,0,0,1,1.433-.415h1.313v-.054a.692.692,0,0,0-.241-.562,1.094,1.094,0,0,0-.71-.2,2.856,2.856,0,0,0-.71.107,4.331,4.331,0,0,0-.79.295l-.455-1.125a6.935,6.935,0,0,1,1.179-.415,4.784,4.784,0,0,1,1.165-.134A2.434,2.434,0,0,1,194.972,68.982Zm-1.393,3.388a.747.747,0,0,0,.348-.469V71.46h-.991c-.469,0-.7.174-.7.522a.529.529,0,0,0,.188.415.708.708,0,0,0,.5.147A1.074,1.074,0,0,0,193.579,72.371Z" transform="translate(-173.035 -66.692)" fill="#464646"/>
      <path id="Path_6034" data-name="Path 6034" d="M231.992,75.589a2.031,2.031,0,0,1-1.205.335,2.422,2.422,0,0,1-.777-.121,2.237,2.237,0,0,1-.71-.4l.683-1.152a1.389,1.389,0,0,0,.335.214.932.932,0,0,0,.335.067.652.652,0,0,0,.6-.388l.121-.228L229.3,69H231l1.205,3.281L233.278,69h1.647l-2.156,5.531A2.351,2.351,0,0,1,231.992,75.589Z" transform="translate(-206.465 -67.125)" fill="#464646"/>
    </g>
    <g id="Group_1243" data-name="Group 1243" transform="translate(39.105 37.207)">
      <path id="Path_6035" data-name="Path 6035" d="M66.3,135.5h2.839v8.464H73.76v2.424H66.3Z" transform="translate(-66.3 -134.121)" fill="#464646"/>
      <path id="Path_6036" data-name="Path 6036" d="M133.3,125.615a1.454,1.454,0,0,1,.415,1.058,1.423,1.423,0,0,1-.415,1.058,1.393,1.393,0,0,1-1.045.415,1.372,1.372,0,0,1-1.045-.415,1.476,1.476,0,0,1-.415-1.058,1.4,1.4,0,0,1,.415-1.058,1.445,1.445,0,0,1,1.045-.415A1.372,1.372,0,0,1,133.3,125.615Zm-2.4,3.455h2.746v8.4h-2.746Z" transform="translate(-122.162 -125.2)" fill="#464646"/>
      <path id="Path_6037" data-name="Path 6037" d="M165.55,155.029a1.049,1.049,0,0,0-.576.134.429.429,0,0,0-.214.4c0,.187.107.335.348.455a5.715,5.715,0,0,0,1.085.375,12.645,12.645,0,0,1,1.5.522,2.768,2.768,0,0,1,1.031.777,2.023,2.023,0,0,1,.429,1.353,2.351,2.351,0,0,1-.991,2,4.239,4.239,0,0,1-2.571.723,6.966,6.966,0,0,1-2.049-.308,5.242,5.242,0,0,1-1.741-.9l.871-1.781a5.877,5.877,0,0,0,1.5.763,4.37,4.37,0,0,0,1.487.268,1.275,1.275,0,0,0,.643-.134.418.418,0,0,0,.241-.375.549.549,0,0,0-.348-.482,5.921,5.921,0,0,0-1.1-.375,11.756,11.756,0,0,1-1.46-.522,2.788,2.788,0,0,1-1-.763,2.058,2.058,0,0,1-.429-1.339,2.362,2.362,0,0,1,.964-2,4.042,4.042,0,0,1,2.491-.723,6.342,6.342,0,0,1,1.808.254,6.729,6.729,0,0,1,1.688.737l-.937,1.808A6.039,6.039,0,0,0,165.55,155.029Z" transform="translate(-149.01 -149.363)" fill="#464646"/>
      <path id="Path_6038" data-name="Path 6038" d="M228.341,149.684a4.581,4.581,0,0,1-1.071.415,5.441,5.441,0,0,1-1.232.147,2.852,2.852,0,0,1-2.009-.71,2.582,2.582,0,0,1-.763-1.969v-3.6H222.1V142.13h1.165V139.8h2.746v2.33h2.17v1.835h-2.17v3.174c0,.589.241.884.737.884a2.709,2.709,0,0,0,1.071-.281Z" transform="translate(-201.234 -137.845)" fill="#464646"/>
    </g>
    <path id="Path_6039" data-name="Path 6039" d="M71.6,47.078V52.8H35.7V24.4H71.6v5.933h.8V23.6H34.9v30H72.4V47.078Z" transform="translate(0 0)" fill="#ea3d5f"/>
    <g id="Group_1244" data-name="Group 1244" transform="translate(69.574 33.457)">
      <path id="Path_6040" data-name="Path 6040" d="M300.523,99.182h-5.732a.989.989,0,0,1-.991-.991h0a.989.989,0,0,1,.991-.991h5.732a.989.989,0,0,1,.991.991h0A.989.989,0,0,1,300.523,99.182Z" transform="translate(-293.8 -97.2)" fill="#ea3d5f"/>
      <path id="Path_6041" data-name="Path 6041" d="M300.523,130.682h-5.732a.989.989,0,0,1-.991-.991h0a.989.989,0,0,1,.991-.991h5.732a.989.989,0,0,1,.991.991h0A.989.989,0,0,1,300.523,130.682Z" transform="translate(-293.8 -124.481)" fill="#ea3d5f"/>
      <path id="Path_6042" data-name="Path 6042" d="M300.523,161.282h-5.732a.989.989,0,0,1-.991-.991h0a.989.989,0,0,1,.991-.991h5.732a.989.989,0,0,1,.991.991h0A1,1,0,0,1,300.523,161.282Z" transform="translate(-293.8 -150.983)" fill="#ea3d5f"/>
    </g>
  </g>
</svg>
