<svg xmlns="http://www.w3.org/2000/svg" width="21.362" height="21.536" viewBox="0 0 21.362 21.536">
  <g id="Group_1338" data-name="Group 1338" transform="translate(-444 -852.286)">
    <g id="notification" transform="translate(444 851)">
      <path id="Path_6048" data-name="Path 6048" d="M136.9,420.279a3.57,3.57,0,0,1-3.566-3.566.713.713,0,1,1,1.426,0,2.14,2.14,0,0,0,4.279,0,.713.713,0,1,1,1.426,0A3.57,3.57,0,0,1,136.9,420.279Zm0,0" transform="translate(-127.389 -397.458)" fill="#5b5b5b"/>
      <path id="Path_6049" data-name="Path 6049" d="M17.354,84.793H1.664A1.664,1.664,0,0,1,.582,81.864a.657.657,0,0,1,.076-.057,6.391,6.391,0,0,0,2.195-4.821V74.333a6.614,6.614,0,0,1,5.1-6.466.713.713,0,0,1,.329,1.388,5.192,5.192,0,0,0-4.006,5.078v2.653a7.821,7.821,0,0,1-2.76,5.963c-.014.011-.027.022-.042.032a.235.235,0,0,0-.05.147.24.24,0,0,0,.238.238h15.69a.24.24,0,0,0,.238-.238.227.227,0,0,0-.051-.147c-.014-.01-.028-.021-.041-.032a7.755,7.755,0,0,1-2-2.606.713.713,0,1,1,1.288-.61,6.356,6.356,0,0,0,1.572,2.077.824.824,0,0,1,.072.054,1.663,1.663,0,0,1-1.08,2.929Zm0,0" transform="translate(0 -64.824)" fill="#5b5b5b"/>
      <path id="Path_6050" data-name="Path 6050" d="M240.849,12.362a6.181,6.181,0,1,1,6.181-6.181A6.188,6.188,0,0,1,240.849,12.362Zm0-10.935A4.754,4.754,0,1,0,245.6,6.181,4.76,4.76,0,0,0,240.849,1.426Zm0,0" transform="translate(-225.668 1.286)" fill="#ffc06a"/>
    </g>
  </g>
</svg>
