<svg xmlns="http://www.w3.org/2000/svg" width="49.175" height="44.059" viewBox="0 0 49.175 44.059">
  <g id="Group_1403" data-name="Group 1403" transform="translate(-991.348 -423.687)">
    <circle id="Ellipse_198" data-name="Ellipse 198" cx="4.831" cy="4.831" r="4.831" transform="translate(1027.258 449.74) rotate(-6.937)" fill="#fff"/>
    <path id="Path_6104" data-name="Path 6104" d="M1332.077,783.728h0a7.886,7.886,0,0,0-7.886,7.886v.04h15.772v-.04A7.886,7.886,0,0,0,1332.077,783.728Z" transform="translate(-299.44 -323.908)" fill="#fff"/>
    <circle id="Ellipse_199" data-name="Ellipse 199" cx="4.831" cy="4.831" r="4.831" transform="translate(993.44 457.572) rotate(-76.991)" fill="#fff"/>
    <path id="Path_6105" data-name="Path 6105" d="M999.234,783.728h0a7.886,7.886,0,0,0-7.886,7.886v.04h15.772v-.04A7.886,7.886,0,0,0,999.234,783.728Z" transform="translate(0 -323.908)" fill="#fff"/>
    <circle id="Ellipse_200" data-name="Ellipse 200" cx="4.831" cy="4.831" r="4.831" transform="matrix(0.994, -0.11, 0.11, 0.994, 1010.602, 424.751)" fill="#fff"/>
    <path id="Path_6106" data-name="Path 6106" d="M1173.541,543.183a7.886,7.886,0,0,0-7.886-7.886h0a7.886,7.886,0,0,0-7.886,7.886v.04h15.772Z" transform="translate(-149.719 -100.409)" fill="#fff"/>
    <path id="Path_6107" data-name="Path 6107" d="M1167.8,656.148l-5.464-3.516a2.926,2.926,0,0,0-2.027-3.276v-5.4a.861.861,0,1,0-1.722,0v5.4a2.927,2.927,0,0,0-2.015,3.341l-5.275,3.454a.861.861,0,1,0,.943,1.44l5.14-3.366a2.926,2.926,0,0,0,4.179-.046l5.309,3.416a.861.861,0,0,0,.932-1.448Z" transform="translate(-143.545 -197.39)" fill="#fff"/>
  </g>
</svg>
