<svg xmlns="http://www.w3.org/2000/svg" width="57.568" height="47.007" viewBox="0 0 57.568 47.007">
  <g id="setup" transform="translate(37.055 64.56) rotate(-135)">
    <g id="Group_1398" data-name="Group 1398" transform="translate(13.903 0)">
      <g id="Group_1393" data-name="Group 1393" transform="translate(0.382 24.01)">
        <g id="Group_1392" data-name="Group 1392">
          <path id="Path_6074" data-name="Path 6074" d="M33.17,269.356l.009-.892.009-.892a.688.688,0,0,0-.567-.678l-1.319-.214a.745.745,0,0,1-.585-.52,7.439,7.439,0,0,0-.446-1.105.766.766,0,0,1,.056-.771l.8-1.115a.7.7,0,0,0-.065-.892l-.632-.641L29.8,261a.692.692,0,0,0-.883-.084l-1.087.762a.739.739,0,0,1-.78.037,6.79,6.79,0,0,0-1.143-.483.735.735,0,0,1-.511-.585l-.214-1.338a.685.685,0,0,0-.669-.576l-.892-.009-.892-.009a.688.688,0,0,0-.678.567l-.232,1.338a.751.751,0,0,1-.511.576,7.2,7.2,0,0,0-1.115.455.743.743,0,0,1-.771-.056l-1.115-.762a.713.713,0,0,0-.883.056l-.641.632-.641.632a.692.692,0,0,0-.084.883l.78,1.105a.742.742,0,0,1,.046.771,7.151,7.151,0,0,0-.464,1.105.724.724,0,0,1-.585.5l-1.338.223a.685.685,0,0,0-.576.669l-.009.892-.009.892a.688.688,0,0,0,.567.678l1.338.232a.751.751,0,0,1,.576.511,7.2,7.2,0,0,0,.455,1.115.743.743,0,0,1-.056.771l-.79,1.1a.7.7,0,0,0,.065.892l.632.641.632.641a.692.692,0,0,0,.883.084l1.105-.78a.744.744,0,0,1,.771-.046,7.9,7.9,0,0,0,1.05.446.737.737,0,0,1,.5.585l.223,1.347a.685.685,0,0,0,.669.576l.892.009.892.009a.68.68,0,0,0,.678-.567l.232-1.319a.745.745,0,0,1,.52-.585,7.06,7.06,0,0,0,1.105-.446.765.765,0,0,1,.771.056l1.115.8a.7.7,0,0,0,.892-.065l.641-.632.641-.632a.692.692,0,0,0,.084-.883l-.762-1.087a.744.744,0,0,1-.046-.771,8.132,8.132,0,0,0,.474-1.1.739.739,0,0,1,.585-.5l1.347-.223A.7.7,0,0,0,33.17,269.356Zm-6.8,1.784a3.961,3.961,0,1,1-.056-5.6A3.962,3.962,0,0,1,26.37,271.14Z" transform="translate(-13.903 -258.71)" fill="#fff"/>
        </g>
      </g>
      <g id="Group_1395" data-name="Group 1395" transform="translate(19.223 32.111)">
        <g id="Group_1394" data-name="Group 1394">
          <path id="Path_6075" data-name="Path 6075" d="M229.339,350.217l-.858-.265a.507.507,0,0,1-.347-.4,5.669,5.669,0,0,0-.192-.776.5.5,0,0,1,.11-.511l.639-.676a.47.47,0,0,0,.037-.6l-.365-.484-.365-.484a.468.468,0,0,0-.585-.137l-.795.411a.505.505,0,0,1-.53-.046,4.419,4.419,0,0,0-.722-.429.481.481,0,0,1-.283-.438l-.018-.913a.461.461,0,0,0-.393-.448l-.594-.082-.594-.082a.467.467,0,0,0-.511.32l-.283.868a.483.483,0,0,1-.393.338,4.721,4.721,0,0,0-.785.2.5.5,0,0,1-.511-.11l-.658-.63a.47.47,0,0,0-.594-.046l-.484.365-.484.365a.468.468,0,0,0-.137.584l.42.813a.509.509,0,0,1-.037.521,4.932,4.932,0,0,0-.42.7.5.5,0,0,1-.438.283l-.913.018a.461.461,0,0,0-.448.393l-.082.594-.082.594a.467.467,0,0,0,.32.511l.868.283a.483.483,0,0,1,.338.393,4.721,4.721,0,0,0,.2.785.5.5,0,0,1-.11.511l-.63.658a.47.47,0,0,0-.037.6l.365.484.365.484a.468.468,0,0,0,.585.137l.813-.42a.531.531,0,0,1,.521.036,4.9,4.9,0,0,0,.667.393.5.5,0,0,1,.283.438l.018.922a.461.461,0,0,0,.393.448l.594.082.594.082a.467.467,0,0,0,.511-.32l.274-.858a.483.483,0,0,1,.4-.338,5.789,5.789,0,0,0,.785-.192.5.5,0,0,1,.511.11l.676.639a.47.47,0,0,0,.6.037l.484-.365.484-.365a.468.468,0,0,0,.137-.584l-.411-.8a.491.491,0,0,1,.046-.521,5.4,5.4,0,0,0,.42-.694.514.514,0,0,1,.438-.283l.922-.018a.461.461,0,0,0,.448-.393l.082-.594.082-.594A.521.521,0,0,0,229.339,350.217Zm-4.576,2.265a2.676,2.676,0,1,1,.484-3.754A2.676,2.676,0,0,1,224.764,352.482Z" transform="translate(-216.639 -343.846)" fill="#fff"/>
        </g>
      </g>
      <g id="Group_1400" data-name="Group 1400" transform="translate(13.686 -2.765) rotate(13)">
        <g id="Group_1392-2" data-name="Group 1392">
          <path id="Path_6074-2" data-name="Path 6074" d="M43.3,274.951l.014-1.36.014-1.361a1.05,1.05,0,0,0-.864-1.035l-2.012-.326a1.137,1.137,0,0,1-.893-.794,11.346,11.346,0,0,0-.68-1.686,1.168,1.168,0,0,1,.085-1.176l1.219-1.7a1.072,1.072,0,0,0-.1-1.36l-.964-.978-.964-.978a1.056,1.056,0,0,0-1.346-.128l-1.658,1.162a1.127,1.127,0,0,1-1.19.057,10.359,10.359,0,0,0-1.743-.737,1.121,1.121,0,0,1-.779-.893l-.326-2.041a1.046,1.046,0,0,0-1.02-.879l-1.361-.014-1.361-.014a1.05,1.05,0,0,0-1.035.865l-.354,2.041a1.146,1.146,0,0,1-.779.879,10.989,10.989,0,0,0-1.7.694,1.134,1.134,0,0,1-1.176-.085l-1.7-1.162a1.088,1.088,0,0,0-1.346.085l-.978.964-.978.964a1.056,1.056,0,0,0-.128,1.346l1.19,1.686a1.132,1.132,0,0,1,.071,1.176,10.906,10.906,0,0,0-.709,1.687,1.1,1.1,0,0,1-.893.765l-2.041.34a1.046,1.046,0,0,0-.879,1.02l-.014,1.361L13.9,274.7a1.05,1.05,0,0,0,.864,1.035l2.041.354a1.146,1.146,0,0,1,.879.779,10.988,10.988,0,0,0,.694,1.7,1.133,1.133,0,0,1-.085,1.176l-1.2,1.672a1.072,1.072,0,0,0,.1,1.36l.964.978.964.978a1.056,1.056,0,0,0,1.346.128l1.686-1.19a1.136,1.136,0,0,1,1.176-.071,12.057,12.057,0,0,0,1.6.68,1.124,1.124,0,0,1,.765.893l.34,2.055a1.046,1.046,0,0,0,1.02.879l1.361.014,1.361.014a1.037,1.037,0,0,0,1.035-.865l.354-2.012a1.137,1.137,0,0,1,.794-.893,10.77,10.77,0,0,0,1.686-.68,1.168,1.168,0,0,1,1.176.085l1.7,1.219a1.072,1.072,0,0,0,1.361-.1l.978-.964.978-.964a1.056,1.056,0,0,0,.128-1.346L38.8,279.954a1.136,1.136,0,0,1-.071-1.176,12.407,12.407,0,0,0,.723-1.672,1.128,1.128,0,0,1,.893-.765L42.4,276A1.075,1.075,0,0,0,43.3,274.951Zm-10.374,2.721a6.043,6.043,0,1,1-.085-8.546A6.043,6.043,0,0,1,32.922,277.672Z" transform="translate(-13.903 -258.71)" fill="#fff"/>
        </g>
      </g>
    </g>
  </g>
</svg>
