<svg id="Outline" xmlns="http://www.w3.org/2000/svg" width="21.572" height="24" viewBox="0 0 21.572 24">
  <g id="Group_33" data-name="Group 33">
    <rect id="Rectangle_14" data-name="Rectangle 14" width="8.571" height="2.571" transform="translate(4.818 16.575)" fill="#fff"/>
    <rect id="Rectangle_15" data-name="Rectangle 15" width="11.754" height="1.714" transform="translate(4.909 12.342)" fill="#fff"/>
    <rect id="Rectangle_16" data-name="Rectangle 16" width="11.754" height="2.571" transform="translate(4.909 7.251)" fill="#fff"/>
    <path id="Path_2275" data-name="Path 2275" d="M22.175,3.4H17.165a3.579,3.579,0,0,0-6.759,0H5.4a2.1,2.1,0,0,0-.479.048A2.423,2.423,0,0,0,3.192,4.876,2.314,2.314,0,0,0,3,5.8V22.6a2.465,2.465,0,0,0,.192.936,2.543,2.543,0,0,0,.515.768,2.4,2.4,0,0,0,1.21.66A3.106,3.106,0,0,0,5.4,25H22.175a2.4,2.4,0,0,0,2.4-2.4V5.8A2.4,2.4,0,0,0,22.175,3.4Zm-8.389-.3a.9.9,0,1,1-.9.9A.906.906,0,0,1,13.786,3.1Zm8.389,19.5H5.4V5.8H22.175Z" transform="translate(-3 -1)" fill="#fff"/>
  </g>
</svg>
