<svg xmlns="http://www.w3.org/2000/svg" width="18.375" height="18.375" viewBox="0 0 18.375 18.375">
  <g id="admin" transform="translate(0 0)">
    <path id="Path_6021" data-name="Path 6021" d="M151,172.906a3.768,3.768,0,1,0,5.922-3.093v3.093a.538.538,0,0,1-.24.448l-1.615,1.077a.539.539,0,0,1-.6,0l-1.615-1.077a.538.538,0,0,1-.24-.448v-3.093A3.753,3.753,0,0,0,151,172.906Z" transform="translate(-145.581 -163.719)"/>
    <path id="Path_6022" data-name="Path 6022" d="M228.153,392.1v-4.463a4.859,4.859,0,0,1-2.153,0V392.1Z" transform="translate(-217.889 -373.723)"/>
    <path id="Path_6023" data-name="Path 6023" d="M17.965,7.05l-1.687-.414c-.08-.219-.172-.437-.275-.655l.879-1.465a.538.538,0,0,0-.081-.658L14.517,1.574a.538.538,0,0,0-.658-.081l-1.465.879c-.217-.1-.436-.2-.655-.275L11.325.41A.538.538,0,0,0,10.8,0H7.573A.538.538,0,0,0,7.05.41L6.636,2.1c-.219.08-.437.172-.655.275L4.516,1.493a.538.538,0,0,0-.658.081L1.574,3.858a.538.538,0,0,0-.081.658l.879,1.465c-.1.217-.2.436-.275.655L.41,7.05A.538.538,0,0,0,0,7.573V10.8a.538.538,0,0,0,.41.523L2.1,11.74c.08.219.172.437.275.655l-.879,1.465a.538.538,0,0,0,.081.658L3.858,16.8a.538.538,0,0,0,.658.081L5.981,16c.217.1.436.2.655.275l.4,1.624V13.527A4.846,4.846,0,0,1,7.37,4.7a.538.538,0,0,1,.741.5V8.9l1.077.718L10.264,8.9V5.2a.538.538,0,0,1,.741-.5,4.844,4.844,0,0,1,.336,8.831V17.9l.4-1.624c.219-.08.437-.172.655-.275l1.465.879a.538.538,0,0,0,.658-.081L16.8,14.517a.538.538,0,0,0,.081-.658L16,12.394c.1-.217.2-.436.275-.655l1.687-.414a.538.538,0,0,0,.41-.523V7.573a.538.538,0,0,0-.41-.523Z" transform="translate(0 0)"/>
  </g>
</svg>
