<svg id="Component_7_99" data-name="Component 7 – 99" xmlns="http://www.w3.org/2000/svg" width="18.623" height="29.848" viewBox="0 0 18.623 29.848">
  <g id="Group_769" data-name="Group 769" transform="translate(-1682.005 -15.126)">
    <g id="two-books" transform="translate(1683.016 121.59)">
      <path id="Path_6010" data-name="Path 6010" d="M28.612,7.239V24.509a1.331,1.331,0,0,1-.623,1.125s-7.755,6.023-9.329,6.98a5.85,5.85,0,0,1-3.045.77c-2.766,0-5.627-1.5-5.627-4V12.878c0-.005,0-.011,0-.017a4.422,4.422,0,0,1,2.065-3.7c1.085-.8,7.55-5.209,7.825-5.4a1.33,1.33,0,0,1,2.079,1.1V6.791a1.33,1.33,0,0,1-2.554.521C17.344,8.724,14.315,10.8,13.637,11.3c-.857.633-.971,1.051-.986,1.587a1.176,1.176,0,0,0,.329.9c.678.621,2.5.36,4.306-.72,1.333-.8,7.077-5.236,9.176-6.877a1.338,1.338,0,0,1,1.4-.146A1.324,1.324,0,0,1,28.612,7.239Zm-2.66,5.928L19.3,18.327v2.66l6.651-5.16Z" transform="translate(-11 -110)" fill="#bcbccb"/>
    </g>
  </g>
</svg>
