<svg xmlns="http://www.w3.org/2000/svg" width="15.368" height="15.241" viewBox="0 0 15.368 15.241">
  <path id="Path_316" data-name="Path 316" d="M257.711,273.139a3.815,3.815,0,0,0-5.388,0l-6.974,6.958a1.271,1.271,0,0,0-.318.53l-1.519,5a1.27,1.27,0,0,0,1.555,1.593l5.127-1.42a1.271,1.271,0,0,0,.558-.325l6.959-6.946A3.815,3.815,0,0,0,257.711,273.139Zm-8.518,10.3-2.579.714.755-2.485,4.706-4.7,1.8,1.8Zm6.722-6.709-.246.246-1.8-1.8.245-.245a1.27,1.27,0,0,1,1.8,1.8Z" transform="translate(-243.457 -272.024)" fill="#fff"/>
</svg>
