<svg xmlns="http://www.w3.org/2000/svg" width="30.229" height="28.341" viewBox="0 0 30.229 28.341">
  <g id="excel" transform="translate(0 -15.989)">
    <path id="Path_5987" data-name="Path 5987" d="M270.17,100.793H256.945a.945.945,0,0,1-.945-.945V80.956a.945.945,0,0,1,.945-.945H270.17a.945.945,0,0,1,.945.945V99.849A.945.945,0,0,1,270.17,100.793Z" transform="translate(-240.885 -60.242)" fill="#eceff1"/>
    <g id="Group_773" data-name="Group 773" transform="translate(15.115 23.548)">
      <path id="Path_5988" data-name="Path 5988" d="M260.723,145.9h-3.779a.945.945,0,0,1,0-1.889h3.779a.945.945,0,1,1,0,1.889Z" transform="translate(-256 -144.011)" fill="#388e3c"/>
      <path id="Path_5989" data-name="Path 5989" d="M260.723,209.9h-3.779a.945.945,0,0,1,0-1.889h3.779a.945.945,0,1,1,0,1.889Z" transform="translate(-256 -204.232)" fill="#388e3c"/>
      <path id="Path_5990" data-name="Path 5990" d="M260.723,273.9h-3.779a.945.945,0,0,1,0-1.889h3.779a.945.945,0,1,1,0,1.889Z" transform="translate(-256 -264.454)" fill="#388e3c"/>
      <path id="Path_5991" data-name="Path 5991" d="M260.723,337.9h-3.779a.945.945,0,1,1,0-1.889h3.779a.945.945,0,1,1,0,1.889Z" transform="translate(-256 -324.675)" fill="#388e3c"/>
      <path id="Path_5992" data-name="Path 5992" d="M386.834,145.9h-1.889a.945.945,0,0,1,0-1.889h1.889a.945.945,0,0,1,0,1.889Z" transform="translate(-376.443 -144.011)" fill="#388e3c"/>
      <path id="Path_5993" data-name="Path 5993" d="M386.834,209.9h-1.889a.945.945,0,0,1,0-1.889h1.889a.945.945,0,0,1,0,1.889Z" transform="translate(-376.443 -204.232)" fill="#388e3c"/>
      <path id="Path_5994" data-name="Path 5994" d="M386.834,273.9h-1.889a.945.945,0,0,1,0-1.889h1.889a.945.945,0,0,1,0,1.889Z" transform="translate(-376.443 -264.454)" fill="#388e3c"/>
      <path id="Path_5995" data-name="Path 5995" d="M386.834,337.9h-1.889a.945.945,0,1,1,0-1.889h1.889a.945.945,0,1,1,0,1.889Z" transform="translate(-376.443 -324.675)" fill="#388e3c"/>
    </g>
    <path id="Path_5996" data-name="Path 5996" d="M16.662,16.208a.928.928,0,0,0-.777-.2L.771,18.842A.942.942,0,0,0,0,19.769V40.552a.943.943,0,0,0,.771.928l15.115,2.834a.889.889,0,0,0,.174.017A.945.945,0,0,0,17,43.386V16.935A.942.942,0,0,0,16.662,16.208Z" fill="#2e7d32"/>
    <path id="Path_5997" data-name="Path 5997" d="M88.252,168.851l-2.987-3.414,3.021-3.884A.945.945,0,0,0,86.8,160.39l-2.8,3.6-2.358-2.694a.944.944,0,1,0-1.421,1.243l2.6,2.97-2.634,3.386a.945.945,0,0,0,1.493,1.16l2.409-3.1,2.747,3.138a.943.943,0,1,0,1.421-1.241Z" transform="translate(-75.261 -135.533)" fill="#fafafa"/>
  </g>
</svg>
