<svg xmlns="http://www.w3.org/2000/svg" width="20" height="20" viewBox="0 0 20 20">
  <g id="logout" transform="translate(0 -0.004)">
    <path id="Path_6017" data-name="Path 6017" d="M12.292,10.837a.826.826,0,0,0-.819.833V15a.827.827,0,0,1-.82.833H8.194V3.337A1.678,1.678,0,0,0,7.078,1.753L6.836,1.67h3.817a.827.827,0,0,1,.82.833V5a.82.82,0,1,0,1.639,0V2.5A2.482,2.482,0,0,0,10.653,0H1.844a.634.634,0,0,0-.088.018C1.717.019,1.679,0,1.639,0A1.655,1.655,0,0,0,0,1.67v15a1.678,1.678,0,0,0,1.116,1.584l4.932,1.672a1.647,1.647,0,0,0,2.147-1.589V17.5h2.458A2.482,2.482,0,0,0,13.111,15V11.67a.826.826,0,0,0-.819-.833Zm0,0" transform="translate(0 0)"/>
    <path id="Path_6018" data-name="Path 6018" d="M286.106,110.184l-3.278-3.278a.819.819,0,0,0-1.4.579v2.458h-3.278a.819.819,0,1,0,0,1.639h3.278v2.458a.819.819,0,0,0,1.4.579l3.278-3.278a.819.819,0,0,0,0-1.159Zm0,0" transform="translate(-266.346 -102.446)"/>
  </g>
</svg>
