<svg xmlns="http://www.w3.org/2000/svg" width="18.876" height="18.852" viewBox="0 0 18.876 18.852">
  <path id="move" d="M28.357,21.433h0a.523.523,0,0,1,.072-.12v-.048c0-.024.024-.072.024-.1,0-.048.024-.1.024-.144a.3.3,0,0,0-.024-.144c0-.024-.024-.072-.024-.1v-.048c-.024-.048-.048-.072-.048-.12V20.6a.42.42,0,0,0-.1-.12h0l-2.823-2.727a.711.711,0,1,0-1,1l1.555,1.555H19.744V14.04L21.3,15.6a.73.73,0,0,0,.5.215.718.718,0,0,0,.5-1.22l-2.775-2.8h0a.522.522,0,0,0-.12-.1h-.024a.181.181,0,0,0-.1-.048h-.024a.144.144,0,0,0-.1-.024c-.048,0-.1-.024-.144-.024a.3.3,0,0,0-.144.024c-.024,0-.072.024-.1.024h-.024c-.048.024-.072.048-.12.048h-.024a.42.42,0,0,0-.12.1h0l-2.751,2.8a.711.711,0,1,0,1,1l1.555-1.555v6.268H12.04L13.6,18.753a.711.711,0,1,0-1-1l-2.8,2.775h0a.522.522,0,0,0-.1.12v.024a.183.183,0,0,0-.048.12v.024c0,.024-.024.072-.024.1,0,.048-.024.1-.024.144a.3.3,0,0,0,.024.144c0,.024.024.072.024.1v.024c.024.048.024.072.048.1v.024a.42.42,0,0,0,.1.12h0l2.8,2.775a.711.711,0,0,0,1-1L12.04,21.744h6.268v6.268l-1.555-1.555a.711.711,0,1,0-1,1l2.775,2.8h0a.522.522,0,0,0,.12.1h.024a.183.183,0,0,0,.12.048h.048c.024,0,.072.024.1.024.048,0,.1.024.144.024a.3.3,0,0,0,.144-.024c.024,0,.072-.024.1-.024h.048c.048-.024.072-.024.1-.048h.024a.42.42,0,0,0,.12-.1h0l2.775-2.8a.711.711,0,0,0-1-1l-1.627,1.555V21.744h6.268L24.457,23.3a.694.694,0,0,0,0,1,.73.73,0,0,0,.5.215.689.689,0,0,0,.5-.215l2.8-2.775h0C28.309,21.5,28.333,21.457,28.357,21.433Z" transform="translate(-9.6 -11.6)" fill="#ffaf37"/>
</svg>
