<svg xmlns="http://www.w3.org/2000/svg" width="26.729" height="28.638" viewBox="0 0 26.729 28.638">
  <g id="pdf" transform="translate(-15.61)">
    <path id="Path_5998" data-name="Path 5998" d="M20.248,0,15.61,4.638v24h21V0Z" transform="translate(0)" fill="#e1e6e9"/>
    <path id="Path_5999" data-name="Path 5999" d="M66.242,151.495a3.339,3.339,0,0,0-1.93-1.047,17.845,17.845,0,0,0-3.484-.28,14.209,14.209,0,0,1-2.615-3.5,39.95,39.95,0,0,0,1.05-4.458,1.662,1.662,0,0,0-.352-1.351,1.507,1.507,0,0,0-1.158-.552h0a1.305,1.305,0,0,0-1.061.51c-.878,1.118-.278,3.823-.148,4.355a8.98,8.98,0,0,0,.553,1.573,23.851,23.851,0,0,1-1.9,4.472,15.676,15.676,0,0,0-4.566,2.521,1.851,1.851,0,0,0-.677,1.338,1.3,1.3,0,0,0,.485.956,1.613,1.613,0,0,0,1.065.389,1.757,1.757,0,0,0,1.114-.4,14.825,14.825,0,0,0,3.276-3.925,16.506,16.506,0,0,1,4.536-.869,25.544,25.544,0,0,0,3.241,2.641,2.08,2.08,0,0,0,2.608-.173A1.481,1.481,0,0,0,66.242,151.495ZM51.95,155.22a.658.658,0,0,1-.828.03.306.306,0,0,1-.127-.2c0-.048.021-.231.337-.539a13.847,13.847,0,0,1,2.872-1.735A12.829,12.829,0,0,1,51.95,155.22Zm5.562-13.753a.266.266,0,0,1,.24-.111.464.464,0,0,1,.355.175.606.606,0,0,1,.129.492h0c-.125.674-.323,1.744-.651,3.016l-.028-.11C57.285,143.813,57.092,142,57.512,141.467Zm-.9,9.3a25.022,25.022,0,0,0,1.161-2.759,15.61,15.61,0,0,0,1.7,2.234A17.327,17.327,0,0,0,56.611,150.771Zm8.939,2.176a1.032,1.032,0,0,1-1.294.065,25.2,25.2,0,0,1-2.294-1.78,16.665,16.665,0,0,1,2.165.244,2.3,2.3,0,0,1,1.329.707C65.863,152.647,65.682,152.821,65.55,152.947Z" transform="translate(-32.24 -131.731)" fill="#e56353"/>
    <path id="Path_6000" data-name="Path 6000" d="M20.248,4.638V0L15.61,4.638Z" transform="translate(0)" fill="#ebf0f3"/>
    <path id="Path_6001" data-name="Path 6001" d="M276.057,39.785H266.13a.764.764,0,0,1-.764-.764V34.771a.764.764,0,0,1,.764-.764h9.928a.764.764,0,0,1,.764.764v4.251A.764.764,0,0,1,276.057,39.785Z" transform="translate(-234.483 -31.927)" fill="#27a2db"/>
    <g id="Group_774" data-name="Group 774" transform="translate(32.185 3.367)">
      <path id="Path_6002" data-name="Path 6002" d="M288.81,55.344a1.059,1.059,0,0,1,.335.861,1.021,1.021,0,0,1-.342.852,1.673,1.673,0,0,1-1.047.27h-.568v.939h-.541v-3.2h1.1A1.645,1.645,0,0,1,288.81,55.344Zm-.383,1.322a.707.707,0,0,0,.163-.5.522.522,0,0,0-.206-.47,1.189,1.189,0,0,0-.646-.137h-.55v1.283h.628A.837.837,0,0,0,288.427,56.666Z" transform="translate(-286.647 -55.064)" fill="#ebf0f3"/>
      <path id="Path_6003" data-name="Path 6003" d="M340.321,55.483a1.493,1.493,0,0,1,.463,1.166,1.57,1.57,0,0,1-.449,1.182,1.908,1.908,0,0,1-1.374.435H337.9v-3.2H339A1.905,1.905,0,0,1,340.321,55.483Zm-.082,1.18q0-1.1-1.26-1.1h-.541v2.195h.6a1.292,1.292,0,0,0,.891-.277A1.041,1.041,0,0,0,340.238,56.663Z" transform="translate(-334.763 -55.064)" fill="#ebf0f3"/>
      <path id="Path_6004" data-name="Path 6004" d="M397.029,55.568v.88h1.42v.5h-1.42v1.32h-.541v-3.2h2.135l0,.5Z" transform="translate(-389.771 -55.064)" fill="#ebf0f3"/>
    </g>
  </g>
</svg>
