<svg xmlns="http://www.w3.org/2000/svg" width="16.809" height="20.148" viewBox="0 0 16.809 20.148">
  <g id="user" transform="translate(0 0)">
    <path id="Path_6019" data-name="Path 6019" d="M91.884,9.705a4.7,4.7,0,0,0,3.431-1.422,4.7,4.7,0,0,0,1.422-3.431,4.7,4.7,0,0,0-1.422-3.431,4.852,4.852,0,0,0-6.862,0,4.7,4.7,0,0,0-1.422,3.431,4.7,4.7,0,0,0,1.422,3.431A4.7,4.7,0,0,0,91.884,9.705Zm0,0" transform="translate(-83.607 0)"/>
    <path id="Path_6020" data-name="Path 6020" d="M16.768,253.077a11.988,11.988,0,0,0-.163-1.273,10.029,10.029,0,0,0-.313-1.28,6.321,6.321,0,0,0-.526-1.194,4.5,4.5,0,0,0-.793-1.034,3.5,3.5,0,0,0-1.14-.716,3.94,3.94,0,0,0-1.455-.263,1.477,1.477,0,0,0-.789.334c-.236.154-.513.333-.822.53a4.708,4.708,0,0,1-1.063.468,4.128,4.128,0,0,1-2.6,0,4.7,4.7,0,0,1-1.062-.468c-.306-.2-.582-.374-.822-.53a1.475,1.475,0,0,0-.788-.334,3.934,3.934,0,0,0-1.455.264,3.5,3.5,0,0,0-1.14.716,4.506,4.506,0,0,0-.793,1.034,6.335,6.335,0,0,0-.526,1.194A10.055,10.055,0,0,0,.2,251.8a11.945,11.945,0,0,0-.163,1.274c-.027.386-.04.786-.04,1.19A3.346,3.346,0,0,0,.993,256.8a3.577,3.577,0,0,0,2.56.934h9.7a3.576,3.576,0,0,0,2.56-.934,3.344,3.344,0,0,0,.994-2.531c0-.406-.014-.806-.041-1.19Zm0,0" transform="translate(0 -237.584)"/>
  </g>
</svg>
