<svg id="Component_7_96" data-name="Component 7 – 96" xmlns="http://www.w3.org/2000/svg" width="32.683" height="35" viewBox="0 0 32.683 35">
  <g id="Group_769" data-name="Group 769" transform="translate(-1678 -10)">
    <path id="Path_5976" data-name="Path 5976" d="M203.229,0h-7.854A2.573,2.573,0,0,0,192.8,2.574V14.355a.612.612,0,0,0,.978.489L196.233,13h7a2.573,2.573,0,0,0,2.575-2.575V2.574A2.573,2.573,0,0,0,203.229,0ZM199.3,10.057a.611.611,0,1,1,.611-.611A.611.611,0,0,1,199.3,10.057Zm.611-2.7v.128a.611.611,0,1,1-1.222,0V6.828a.611.611,0,0,1,.611-.611,1.025,1.025,0,1,0-1.025-1.026.611.611,0,1,1-1.222,0h0a2.247,2.247,0,1,1,2.858,2.164Zm0,0" transform="translate(1504.879 10)" fill="#f52154"/>
    <g id="Group_721" data-name="Group 721" transform="translate(1678 15.126)">
      <path id="Path_5977" data-name="Path 5977" d="M40.058,248.8a7.816,7.816,0,1,1-7.816-7.817A7.816,7.816,0,0,1,40.058,248.8Zm0,0" transform="translate(-21.733 -240.988)" fill="#bcbccb"/>
      <path id="Path_5978" data-name="Path 5978" d="M10.509,382.805A10.509,10.509,0,0,0,0,393.314v2.079a1.653,1.653,0,0,0,1.653,1.653H19.364a1.654,1.654,0,0,0,1.653-1.653v-2.079a10.509,10.509,0,0,0-10.509-10.509Zm0,0" transform="translate(0 -367.172)" fill="#bcbccb"/>
    </g>
  </g>
</svg>
