<svg id="view" xmlns="http://www.w3.org/2000/svg" width="17.527" height="11.283" viewBox="0 0 17.527 11.283">
  <g id="Group_731" data-name="Group 731" transform="translate(5.943 2.821)">
    <g id="Group_730" data-name="Group 730" transform="translate(0 0)">
      <path id="Path_5979" data-name="Path 5979" d="M159.237,156.416a2.821,2.821,0,1,0,2.821,2.821A2.823,2.823,0,0,0,159.237,156.416Zm-.214,1.984a.648.648,0,0,0-.642.642h-.934a1.594,1.594,0,0,1,1.576-1.576Z" transform="translate(-156.416 -156.416)" fill="#646262"/>
    </g>
  </g>
  <g id="Group_733" data-name="Group 733" transform="translate(0 0)">
    <g id="Group_732" data-name="Group 732" transform="translate(0 0)">
      <path id="Path_5980" data-name="Path 5980" d="M17.323,87.234c-.953-1.187-4.358-5.058-8.559-5.058S1.157,86.047.2,87.234A.936.936,0,0,0,.2,88.4c.953,1.187,4.358,5.058,8.559,5.058s7.606-3.871,8.559-5.058A.936.936,0,0,0,17.323,87.234ZM8.764,91.9a4.085,4.085,0,1,1,4.085-4.085A4.085,4.085,0,0,1,8.764,91.9Z" transform="translate(0 -82.176)" fill="#646262"/>
    </g>
  </g>
</svg>
