<svg id="writing" xmlns="http://www.w3.org/2000/svg" width="16.676" height="18.607" viewBox="0 0 16.676 18.607">
  <g id="Group_143" data-name="Group 143" transform="translate(0)">
    <g id="Group_142" data-name="Group 142" transform="translate(0)">
      <path id="Path_313" data-name="Path 313" d="M115.4,200.727a.727.727,0,0,0-.727-.727h-7.486a.727.727,0,1,0,0,1.454h7.486A.727.727,0,0,0,115.4,200.727Z" transform="translate(-103.556 -192.732)" fill="#5537e4"/>
      <path id="Path_314" data-name="Path 314" d="M107.186,280a.727.727,0,1,0,0,1.454h4.547a.727.727,0,1,0,0-1.454Z" transform="translate(-103.556 -269.824)" fill="#5537e4"/>
      <path id="Path_315" data-name="Path 315" d="M31.908,17.153H29.477A1.455,1.455,0,0,1,28.024,15.7V2.907a1.455,1.455,0,0,1,1.454-1.454h8.936a1.455,1.455,0,0,1,1.454,1.454v4.47a.727.727,0,0,0,1.454,0V2.907A2.911,2.911,0,0,0,38.413,0H29.477A2.911,2.911,0,0,0,26.57,2.907V15.7a2.911,2.911,0,0,0,2.907,2.907h2.431a.727.727,0,1,0,0-1.454Z" transform="translate(-26.57)" fill="#5537e4"/>
      <path id="Path_316" data-name="Path 316" d="M251.613,272.662a2.183,2.183,0,0,0-3.083,0l-3.99,3.982a.727.727,0,0,0-.182.3l-.869,2.861a.727.727,0,0,0,.889.912l2.934-.813a.727.727,0,0,0,.319-.186l3.982-3.975A2.183,2.183,0,0,0,251.613,272.662Zm-4.874,5.894-1.476.409.432-1.422,2.693-2.687,1.028,1.028Zm3.846-3.839-.141.141-1.028-1.028.14-.14a.727.727,0,0,1,1.028,1.027Z" transform="translate(-235.575 -262.138)" fill="#5537e4"/>
      <path id="Path_317" data-name="Path 317" d="M114.672,120h-7.486a.727.727,0,1,0,0,1.454h7.486a.727.727,0,1,0,0-1.454Z" transform="translate(-103.556 -115.639)" fill="#5537e4"/>
    </g>
  </g>
</svg>
